<mxfile host="app.diagrams.net" agent="Mozilla/5.0 (Windows NT 10.0; Win64; x64) AppleWebKit/537.36 (KHTML, like Gecko) Chrome/137.0.0.0 Safari/537.36 OPR/121.0.0.0" version="28.2.3" pages="3">
  <diagram name="Main Flow" id="pjAIYPasuLSQLpLyKhO5">
    <mxGraphModel dx="997" dy="638" grid="1" gridSize="10" guides="1" tooltips="1" connect="1" arrows="1" fold="1" page="1" pageScale="1" pageWidth="850" pageHeight="1100" math="0" shadow="0">
      <root>
        <mxCell id="0" />
        <mxCell id="1" parent="0" />
        <mxCell id="OOmO2f__sAI6Ec5bMHE--2" style="edgeStyle=orthogonalEdgeStyle;rounded=0;orthogonalLoop=1;jettySize=auto;html=1;exitX=0.5;exitY=1;exitDx=0;exitDy=0;entryX=0.5;entryY=0;entryDx=0;entryDy=0;" edge="1" parent="1" target="OOmO2f__sAI6Ec5bMHE--6">
          <mxGeometry relative="1" as="geometry">
            <mxPoint x="250" y="180" as="sourcePoint" />
            <mxPoint x="250" y="120" as="targetPoint" />
          </mxGeometry>
        </mxCell>
        <mxCell id="OOmO2f__sAI6Ec5bMHE--3" value="Start" style="ellipse;whiteSpace=wrap;html=1;aspect=fixed;" vertex="1" parent="1">
          <mxGeometry x="230" y="140" width="40" height="40" as="geometry" />
        </mxCell>
        <mxCell id="OOmO2f__sAI6Ec5bMHE--4" value="End" style="ellipse;whiteSpace=wrap;html=1;aspect=fixed;" vertex="1" parent="1">
          <mxGeometry x="230" y="880" width="40" height="40" as="geometry" />
        </mxCell>
        <mxCell id="OOmO2f__sAI6Ec5bMHE--5" style="edgeStyle=orthogonalEdgeStyle;rounded=0;orthogonalLoop=1;jettySize=auto;html=1;exitX=0.5;exitY=1;exitDx=0;exitDy=0;entryX=0.5;entryY=0;entryDx=0;entryDy=0;" edge="1" parent="1" source="OOmO2f__sAI6Ec5bMHE--6" target="OOmO2f__sAI6Ec5bMHE--9">
          <mxGeometry relative="1" as="geometry" />
        </mxCell>
        <mxCell id="OOmO2f__sAI6Ec5bMHE--6" value="User Logs in" style="rounded=1;whiteSpace=wrap;html=1;" vertex="1" parent="1">
          <mxGeometry x="190" y="210" width="120" height="60" as="geometry" />
        </mxCell>
        <mxCell id="OOmO2f__sAI6Ec5bMHE--7" value="No" style="edgeStyle=orthogonalEdgeStyle;rounded=0;orthogonalLoop=1;jettySize=auto;html=1;exitX=1;exitY=0.5;exitDx=0;exitDy=0;entryX=0;entryY=0.5;entryDx=0;entryDy=0;" edge="1" parent="1" source="OOmO2f__sAI6Ec5bMHE--9" target="OOmO2f__sAI6Ec5bMHE--12">
          <mxGeometry relative="1" as="geometry" />
        </mxCell>
        <mxCell id="-d7uo09sc_PJhQ4rvEvB-4" style="edgeStyle=orthogonalEdgeStyle;rounded=0;orthogonalLoop=1;jettySize=auto;html=1;exitX=0.5;exitY=1;exitDx=0;exitDy=0;entryX=0.5;entryY=0;entryDx=0;entryDy=0;" edge="1" parent="1" source="OOmO2f__sAI6Ec5bMHE--9" target="-d7uo09sc_PJhQ4rvEvB-1">
          <mxGeometry relative="1" as="geometry" />
        </mxCell>
        <mxCell id="OOmO2f__sAI6Ec5bMHE--9" value="Succed?" style="rhombus;whiteSpace=wrap;html=1;" vertex="1" parent="1">
          <mxGeometry x="210" y="300" width="80" height="80" as="geometry" />
        </mxCell>
        <mxCell id="OOmO2f__sAI6Ec5bMHE--10" value="Yes" style="edgeStyle=orthogonalEdgeStyle;rounded=0;orthogonalLoop=1;jettySize=auto;html=1;exitX=1;exitY=0.5;exitDx=0;exitDy=0;entryX=0;entryY=0.5;entryDx=0;entryDy=0;" edge="1" parent="1" source="OOmO2f__sAI6Ec5bMHE--12" target="OOmO2f__sAI6Ec5bMHE--16">
          <mxGeometry relative="1" as="geometry" />
        </mxCell>
        <mxCell id="OOmO2f__sAI6Ec5bMHE--11" value="No" style="edgeStyle=orthogonalEdgeStyle;rounded=0;orthogonalLoop=1;jettySize=auto;html=1;exitX=0.5;exitY=0;exitDx=0;exitDy=0;" edge="1" parent="1" source="OOmO2f__sAI6Ec5bMHE--12">
          <mxGeometry relative="1" as="geometry">
            <mxPoint x="400" y="240" as="targetPoint" />
          </mxGeometry>
        </mxCell>
        <mxCell id="OOmO2f__sAI6Ec5bMHE--12" value="Create User?" style="rhombus;whiteSpace=wrap;html=1;" vertex="1" parent="1">
          <mxGeometry x="360" y="300" width="80" height="80" as="geometry" />
        </mxCell>
        <mxCell id="OOmO2f__sAI6Ec5bMHE--13" value="" style="edgeStyle=orthogonalEdgeStyle;rounded=0;orthogonalLoop=1;jettySize=auto;html=1;" edge="1" parent="1" source="OOmO2f__sAI6Ec5bMHE--14" target="OOmO2f__sAI6Ec5bMHE--18">
          <mxGeometry relative="1" as="geometry" />
        </mxCell>
        <mxCell id="OOmO2f__sAI6Ec5bMHE--14" value="Go to User home page" style="rounded=1;whiteSpace=wrap;html=1;" vertex="1" parent="1">
          <mxGeometry x="190" y="610" width="120" height="60" as="geometry" />
        </mxCell>
        <mxCell id="OOmO2f__sAI6Ec5bMHE--15" style="edgeStyle=orthogonalEdgeStyle;rounded=0;orthogonalLoop=1;jettySize=auto;html=1;exitX=0.5;exitY=0;exitDx=0;exitDy=0;entryX=1;entryY=0.5;entryDx=0;entryDy=0;" edge="1" parent="1" source="OOmO2f__sAI6Ec5bMHE--16" target="OOmO2f__sAI6Ec5bMHE--6">
          <mxGeometry relative="1" as="geometry">
            <mxPoint x="400" y="240" as="targetPoint" />
          </mxGeometry>
        </mxCell>
        <mxCell id="OOmO2f__sAI6Ec5bMHE--16" value="Create User" style="rounded=1;whiteSpace=wrap;html=1;shape=process;backgroundOutline=1;" vertex="1" parent="1">
          <mxGeometry x="500" y="310" width="120" height="60" as="geometry" />
        </mxCell>
        <mxCell id="OOmO2f__sAI6Ec5bMHE--17" value="" style="edgeStyle=orthogonalEdgeStyle;rounded=0;orthogonalLoop=1;jettySize=auto;html=1;" edge="1" parent="1" source="OOmO2f__sAI6Ec5bMHE--18" target="OOmO2f__sAI6Ec5bMHE--20">
          <mxGeometry relative="1" as="geometry" />
        </mxCell>
        <mxCell id="OOmO2f__sAI6Ec5bMHE--18" value="Choose Activity" style="whiteSpace=wrap;html=1;rounded=1;" vertex="1" parent="1">
          <mxGeometry x="190" y="700" width="120" height="60" as="geometry" />
        </mxCell>
        <mxCell id="OOmO2f__sAI6Ec5bMHE--19" style="edgeStyle=orthogonalEdgeStyle;rounded=0;orthogonalLoop=1;jettySize=auto;html=1;exitX=0.5;exitY=1;exitDx=0;exitDy=0;entryX=0.5;entryY=0;entryDx=0;entryDy=0;" edge="1" parent="1" source="OOmO2f__sAI6Ec5bMHE--20" target="OOmO2f__sAI6Ec5bMHE--4">
          <mxGeometry relative="1" as="geometry" />
        </mxCell>
        <mxCell id="OOmO2f__sAI6Ec5bMHE--20" value="Logout" style="whiteSpace=wrap;html=1;rounded=1;" vertex="1" parent="1">
          <mxGeometry x="190" y="790" width="120" height="60" as="geometry" />
        </mxCell>
        <mxCell id="-d7uo09sc_PJhQ4rvEvB-6" style="edgeStyle=orthogonalEdgeStyle;rounded=0;orthogonalLoop=1;jettySize=auto;html=1;exitX=0.5;exitY=1;exitDx=0;exitDy=0;entryX=0.5;entryY=0;entryDx=0;entryDy=0;" edge="1" parent="1" source="-d7uo09sc_PJhQ4rvEvB-1" target="-d7uo09sc_PJhQ4rvEvB-5">
          <mxGeometry relative="1" as="geometry" />
        </mxCell>
        <mxCell id="-d7uo09sc_PJhQ4rvEvB-1" value="Game" style="shape=process;whiteSpace=wrap;html=1;backgroundOutline=1;" vertex="1" parent="1">
          <mxGeometry x="190" y="400" width="120" height="60" as="geometry" />
        </mxCell>
        <mxCell id="-d7uo09sc_PJhQ4rvEvB-8" value="Yes" style="edgeStyle=orthogonalEdgeStyle;rounded=0;orthogonalLoop=1;jettySize=auto;html=1;exitX=0.5;exitY=1;exitDx=0;exitDy=0;entryX=0.5;entryY=0;entryDx=0;entryDy=0;" edge="1" parent="1" source="-d7uo09sc_PJhQ4rvEvB-5" target="OOmO2f__sAI6Ec5bMHE--14">
          <mxGeometry relative="1" as="geometry" />
        </mxCell>
        <mxCell id="-d7uo09sc_PJhQ4rvEvB-10" value="No" style="edgeStyle=orthogonalEdgeStyle;rounded=0;orthogonalLoop=1;jettySize=auto;html=1;exitX=0;exitY=0.5;exitDx=0;exitDy=0;entryX=0;entryY=0.5;entryDx=0;entryDy=0;" edge="1" parent="1" source="-d7uo09sc_PJhQ4rvEvB-5" target="-d7uo09sc_PJhQ4rvEvB-1">
          <mxGeometry relative="1" as="geometry" />
        </mxCell>
        <mxCell id="-d7uo09sc_PJhQ4rvEvB-5" value="Succeed" style="rhombus;whiteSpace=wrap;html=1;" vertex="1" parent="1">
          <mxGeometry x="210" y="500" width="80" height="80" as="geometry" />
        </mxCell>
      </root>
    </mxGraphModel>
  </diagram>
  <diagram id="qpW_D4zLT1BnkpCPRj8o" name="Game">
    <mxGraphModel dx="997" dy="638" grid="1" gridSize="10" guides="1" tooltips="1" connect="1" arrows="1" fold="1" page="1" pageScale="1" pageWidth="850" pageHeight="1100" math="0" shadow="0">
      <root>
        <mxCell id="0" />
        <mxCell id="1" parent="0" />
        <mxCell id="DUrq_tXL7icfHCRuOtBh-1" value="" style="edgeStyle=orthogonalEdgeStyle;rounded=0;orthogonalLoop=1;jettySize=auto;html=1;" edge="1" parent="1" source="DUrq_tXL7icfHCRuOtBh-2" target="DUrq_tXL7icfHCRuOtBh-3">
          <mxGeometry relative="1" as="geometry" />
        </mxCell>
        <mxCell id="DUrq_tXL7icfHCRuOtBh-2" value="Game" style="ellipse;whiteSpace=wrap;html=1;aspect=fixed;" vertex="1" parent="1">
          <mxGeometry x="140" y="100" width="40" height="40" as="geometry" />
        </mxCell>
        <mxCell id="DUrq_tXL7icfHCRuOtBh-3" value="Mini game" style="shape=process;whiteSpace=wrap;html=1;backgroundOutline=1;" vertex="1" parent="1">
          <mxGeometry x="100" y="180" width="120" height="60" as="geometry" />
        </mxCell>
      </root>
    </mxGraphModel>
  </diagram>
  <diagram id="6SO6UsiT71qyRd8Ectvt" name="Create User">
    <mxGraphModel dx="997" dy="638" grid="1" gridSize="10" guides="1" tooltips="1" connect="1" arrows="1" fold="1" page="1" pageScale="1" pageWidth="850" pageHeight="1100" math="0" shadow="0">
      <root>
        <mxCell id="0" />
        <mxCell id="1" parent="0" />
        <mxCell id="-EVa_VFJcc5N0RKcG7ni-2" style="edgeStyle=orthogonalEdgeStyle;rounded=0;orthogonalLoop=1;jettySize=auto;html=1;exitX=0.5;exitY=1;exitDx=0;exitDy=0;entryX=0.5;entryY=0;entryDx=0;entryDy=0;" edge="1" parent="1" source="bLb63dWVyqMDFsnu1t4B-1" target="-EVa_VFJcc5N0RKcG7ni-1">
          <mxGeometry relative="1" as="geometry" />
        </mxCell>
        <mxCell id="bLb63dWVyqMDFsnu1t4B-1" value="Create User" style="ellipse;whiteSpace=wrap;html=1;aspect=fixed;" vertex="1" parent="1">
          <mxGeometry x="120" y="80" width="80" height="80" as="geometry" />
        </mxCell>
        <mxCell id="c2JxxAvYd308JT6zsOXU-2" style="edgeStyle=orthogonalEdgeStyle;rounded=0;orthogonalLoop=1;jettySize=auto;html=1;exitX=0.5;exitY=1;exitDx=0;exitDy=0;entryX=0.5;entryY=0;entryDx=0;entryDy=0;" edge="1" parent="1" source="-EVa_VFJcc5N0RKcG7ni-1" target="c2JxxAvYd308JT6zsOXU-1">
          <mxGeometry relative="1" as="geometry" />
        </mxCell>
        <mxCell id="-EVa_VFJcc5N0RKcG7ni-1" value="Get User Information" style="rounded=1;whiteSpace=wrap;html=1;" vertex="1" parent="1">
          <mxGeometry x="100" y="200" width="120" height="60" as="geometry" />
        </mxCell>
        <mxCell id="c2JxxAvYd308JT6zsOXU-5" value="Fail" style="edgeStyle=orthogonalEdgeStyle;rounded=0;orthogonalLoop=1;jettySize=auto;html=1;exitX=1;exitY=0.5;exitDx=0;exitDy=0;entryX=1;entryY=0.5;entryDx=0;entryDy=0;" edge="1" parent="1" source="c2JxxAvYd308JT6zsOXU-1" target="-EVa_VFJcc5N0RKcG7ni-1">
          <mxGeometry relative="1" as="geometry">
            <mxPoint x="280" y="230" as="targetPoint" />
            <Array as="points">
              <mxPoint x="280" y="320" />
              <mxPoint x="280" y="230" />
            </Array>
          </mxGeometry>
        </mxCell>
        <mxCell id="c2JxxAvYd308JT6zsOXU-8" style="edgeStyle=orthogonalEdgeStyle;rounded=0;orthogonalLoop=1;jettySize=auto;html=1;exitX=0.5;exitY=1;exitDx=0;exitDy=0;entryX=0.5;entryY=0;entryDx=0;entryDy=0;" edge="1" parent="1" source="c2JxxAvYd308JT6zsOXU-1" target="c2JxxAvYd308JT6zsOXU-7">
          <mxGeometry relative="1" as="geometry" />
        </mxCell>
        <mxCell id="c2JxxAvYd308JT6zsOXU-1" value="Validate&amp;nbsp;&lt;div&gt;User Info&lt;/div&gt;" style="rhombus;whiteSpace=wrap;html=1;" vertex="1" parent="1">
          <mxGeometry x="120" y="280" width="80" height="80" as="geometry" />
        </mxCell>
        <mxCell id="c2JxxAvYd308JT6zsOXU-12" style="edgeStyle=orthogonalEdgeStyle;rounded=0;orthogonalLoop=1;jettySize=auto;html=1;exitX=0.5;exitY=1;exitDx=0;exitDy=0;entryX=0.5;entryY=0;entryDx=0;entryDy=0;" edge="1" parent="1" source="c2JxxAvYd308JT6zsOXU-7" target="c2JxxAvYd308JT6zsOXU-10">
          <mxGeometry relative="1" as="geometry" />
        </mxCell>
        <mxCell id="c2JxxAvYd308JT6zsOXU-7" value="Write User Info to Database" style="shape=process;whiteSpace=wrap;html=1;backgroundOutline=1;" vertex="1" parent="1">
          <mxGeometry x="100" y="390" width="120" height="60" as="geometry" />
        </mxCell>
        <mxCell id="c2JxxAvYd308JT6zsOXU-13" style="edgeStyle=orthogonalEdgeStyle;rounded=0;orthogonalLoop=1;jettySize=auto;html=1;exitX=0.5;exitY=1;exitDx=0;exitDy=0;entryX=0.5;entryY=0;entryDx=0;entryDy=0;" edge="1" parent="1" source="c2JxxAvYd308JT6zsOXU-10" target="c2JxxAvYd308JT6zsOXU-11">
          <mxGeometry relative="1" as="geometry" />
        </mxCell>
        <mxCell id="c2JxxAvYd308JT6zsOXU-10" value="Return to Login Page" style="rounded=1;whiteSpace=wrap;html=1;" vertex="1" parent="1">
          <mxGeometry x="100" y="480" width="120" height="60" as="geometry" />
        </mxCell>
        <mxCell id="c2JxxAvYd308JT6zsOXU-11" value="Login" style="ellipse;whiteSpace=wrap;html=1;aspect=fixed;" vertex="1" parent="1">
          <mxGeometry x="120" y="580" width="80" height="80" as="geometry" />
        </mxCell>
      </root>
    </mxGraphModel>
  </diagram>
</mxfile>
